<mxfile host="app.diagrams.net" agent="Mozilla/5.0 (Windows NT 10.0; Win64; x64) AppleWebKit/537.36 (KHTML, like Gecko) Chrome/135.0.0.0 Safari/537.36" version="26.2.10">
  <diagram name="Page-1" id="dV9SPhK2G-Q2P7TGdD3T">
    <mxGraphModel dx="874" dy="465" grid="1" gridSize="10" guides="1" tooltips="1" connect="1" arrows="1" fold="1" page="1" pageScale="1" pageWidth="850" pageHeight="1100" math="0" shadow="0">
      <root>
        <mxCell id="0" />
        <mxCell id="1" parent="0" />
        <mxCell id="1Kfne0L4y8xewOiXxfqm-1" value="" style="ellipse;html=1;shape=startState;" parent="1" vertex="1">
          <mxGeometry x="410" y="80" width="30" height="30" as="geometry" />
        </mxCell>
        <mxCell id="1Kfne0L4y8xewOiXxfqm-2" value="" style="edgeStyle=orthogonalEdgeStyle;html=1;verticalAlign=bottom;endArrow=open;endSize=8;rounded=0;" parent="1" source="1Kfne0L4y8xewOiXxfqm-1" edge="1">
          <mxGeometry relative="1" as="geometry">
            <mxPoint x="425" y="160" as="targetPoint" />
          </mxGeometry>
        </mxCell>
        <mxCell id="1Kfne0L4y8xewOiXxfqm-3" value="&lt;font style=&quot;font-size: 16px;&quot;&gt;login form&lt;/font&gt;" style="rounded=1;whiteSpace=wrap;html=1;arcSize=40;fillColor=none;" parent="1" vertex="1">
          <mxGeometry x="365" y="160" width="120" height="40" as="geometry" />
        </mxCell>
        <mxCell id="1Kfne0L4y8xewOiXxfqm-4" value="" style="edgeStyle=orthogonalEdgeStyle;html=1;verticalAlign=bottom;endArrow=open;endSize=8;rounded=0;fillColor=none;" parent="1" source="1Kfne0L4y8xewOiXxfqm-3" edge="1">
          <mxGeometry relative="1" as="geometry">
            <mxPoint x="425" y="260" as="targetPoint" />
          </mxGeometry>
        </mxCell>
        <mxCell id="1Kfne0L4y8xewOiXxfqm-5" value="&lt;font style=&quot;font-size: 16px;&quot;&gt;Enter credentials&lt;/font&gt;" style="rounded=1;whiteSpace=wrap;html=1;arcSize=40;fillColor=none;" parent="1" vertex="1">
          <mxGeometry x="353" y="260" width="145" height="40" as="geometry" />
        </mxCell>
        <mxCell id="1Kfne0L4y8xewOiXxfqm-6" value="" style="edgeStyle=orthogonalEdgeStyle;html=1;verticalAlign=bottom;endArrow=open;endSize=8;rounded=0;fillColor=none;" parent="1" source="1Kfne0L4y8xewOiXxfqm-5" edge="1">
          <mxGeometry relative="1" as="geometry">
            <mxPoint x="425" y="360" as="targetPoint" />
          </mxGeometry>
        </mxCell>
        <mxCell id="1Kfne0L4y8xewOiXxfqm-13" style="edgeStyle=orthogonalEdgeStyle;rounded=0;orthogonalLoop=1;jettySize=auto;html=1;" parent="1" source="1Kfne0L4y8xewOiXxfqm-7" edge="1">
          <mxGeometry relative="1" as="geometry">
            <mxPoint x="517" y="490" as="targetPoint" />
          </mxGeometry>
        </mxCell>
        <mxCell id="1Kfne0L4y8xewOiXxfqm-19" style="edgeStyle=orthogonalEdgeStyle;rounded=0;orthogonalLoop=1;jettySize=auto;html=1;" parent="1" source="1Kfne0L4y8xewOiXxfqm-7" edge="1">
          <mxGeometry relative="1" as="geometry">
            <mxPoint x="310" y="490" as="targetPoint" />
            <Array as="points">
              <mxPoint x="310" y="405" />
              <mxPoint x="310" y="490" />
            </Array>
          </mxGeometry>
        </mxCell>
        <mxCell id="1Kfne0L4y8xewOiXxfqm-7" value="&lt;font style=&quot;font-size: 16px;&quot;&gt;checking&lt;/font&gt;" style="rhombus;whiteSpace=wrap;html=1;" parent="1" vertex="1">
          <mxGeometry x="380" y="360" width="85.5" height="90" as="geometry" />
        </mxCell>
        <mxCell id="1Kfne0L4y8xewOiXxfqm-15" value="&lt;font style=&quot;font-size: 16px;&quot;&gt;Show Home page&lt;/font&gt;" style="rounded=1;whiteSpace=wrap;html=1;arcSize=40;fillColor=none;" parent="1" vertex="1">
          <mxGeometry x="440" y="490" width="150" height="40" as="geometry" />
        </mxCell>
        <mxCell id="1Kfne0L4y8xewOiXxfqm-17" value="&lt;font style=&quot;font-size: 14px;&quot;&gt;valid&lt;/font&gt;" style="text;html=1;align=center;verticalAlign=middle;whiteSpace=wrap;rounded=0;" parent="1" vertex="1">
          <mxGeometry x="460" y="380" width="60" height="30" as="geometry" />
        </mxCell>
        <mxCell id="1Kfne0L4y8xewOiXxfqm-24" style="edgeStyle=orthogonalEdgeStyle;rounded=0;orthogonalLoop=1;jettySize=auto;html=1;entryX=0;entryY=0.5;entryDx=0;entryDy=0;exitX=0.5;exitY=1;exitDx=0;exitDy=0;" parent="1" source="1Kfne0L4y8xewOiXxfqm-20" target="1Kfne0L4y8xewOiXxfqm-22" edge="1">
          <mxGeometry relative="1" as="geometry" />
        </mxCell>
        <mxCell id="1Kfne0L4y8xewOiXxfqm-20" value="&lt;font style=&quot;font-size: 16px;&quot;&gt;Show Error message&lt;/font&gt;" style="rounded=1;whiteSpace=wrap;html=1;arcSize=40;fillColor=none;" parent="1" vertex="1">
          <mxGeometry x="235" y="490" width="145" height="40" as="geometry" />
        </mxCell>
        <mxCell id="1Kfne0L4y8xewOiXxfqm-21" value="&lt;font style=&quot;font-size: 14px;&quot;&gt;invalid&lt;/font&gt;" style="text;html=1;align=center;verticalAlign=middle;whiteSpace=wrap;rounded=0;" parent="1" vertex="1">
          <mxGeometry x="330" y="380" width="60" height="30" as="geometry" />
        </mxCell>
        <mxCell id="1Kfne0L4y8xewOiXxfqm-22" value="" style="ellipse;html=1;shape=endState;" parent="1" vertex="1">
          <mxGeometry x="417.5" y="1020" width="30" height="30" as="geometry" />
        </mxCell>
        <mxCell id="zceYt40zE1iQLCcmFlUy-1" value="" style="endArrow=none;html=1;rounded=0;entryX=0.5;entryY=1;entryDx=0;entryDy=0;" edge="1" parent="1" target="1Kfne0L4y8xewOiXxfqm-15">
          <mxGeometry width="50" height="50" relative="1" as="geometry">
            <mxPoint x="515" y="580" as="sourcePoint" />
            <mxPoint x="450" y="490" as="targetPoint" />
          </mxGeometry>
        </mxCell>
        <mxCell id="zceYt40zE1iQLCcmFlUy-2" value="" style="endArrow=none;html=1;rounded=0;" edge="1" parent="1">
          <mxGeometry width="50" height="50" relative="1" as="geometry">
            <mxPoint x="400" y="580" as="sourcePoint" />
            <mxPoint x="700" y="580" as="targetPoint" />
          </mxGeometry>
        </mxCell>
        <mxCell id="zceYt40zE1iQLCcmFlUy-3" value="" style="endArrow=classic;html=1;rounded=0;" edge="1" parent="1">
          <mxGeometry width="50" height="50" relative="1" as="geometry">
            <mxPoint x="400" y="580" as="sourcePoint" />
            <mxPoint x="400" y="640" as="targetPoint" />
          </mxGeometry>
        </mxCell>
        <mxCell id="zceYt40zE1iQLCcmFlUy-4" value="&lt;span style=&quot;font-size: 16px;&quot;&gt;Manage Stock&lt;/span&gt;" style="rounded=1;whiteSpace=wrap;html=1;arcSize=40;fillColor=none;" vertex="1" parent="1">
          <mxGeometry x="330" y="640" width="145" height="40" as="geometry" />
        </mxCell>
        <mxCell id="zceYt40zE1iQLCcmFlUy-5" value="" style="endArrow=classic;html=1;rounded=0;entryX=0.372;entryY=0.05;entryDx=0;entryDy=0;entryPerimeter=0;" edge="1" parent="1" target="zceYt40zE1iQLCcmFlUy-6">
          <mxGeometry width="50" height="50" relative="1" as="geometry">
            <mxPoint x="544" y="580" as="sourcePoint" />
            <mxPoint x="510" y="630" as="targetPoint" />
            <Array as="points" />
          </mxGeometry>
        </mxCell>
        <mxCell id="zceYt40zE1iQLCcmFlUy-6" value="&lt;font style=&quot;font-size: 16px;&quot;&gt;Manage Employee&lt;/font&gt;" style="rounded=1;whiteSpace=wrap;html=1;arcSize=40;fillColor=none;" vertex="1" parent="1">
          <mxGeometry x="490" y="640" width="145" height="40" as="geometry" />
        </mxCell>
        <mxCell id="zceYt40zE1iQLCcmFlUy-7" value="" style="endArrow=classic;html=1;rounded=0;" edge="1" parent="1">
          <mxGeometry width="50" height="50" relative="1" as="geometry">
            <mxPoint x="700" y="580" as="sourcePoint" />
            <mxPoint x="700" y="640" as="targetPoint" />
            <Array as="points" />
          </mxGeometry>
        </mxCell>
        <mxCell id="zceYt40zE1iQLCcmFlUy-9" value="&lt;span style=&quot;font-size: 16px;&quot;&gt;Generate Reports&lt;/span&gt;" style="rounded=1;whiteSpace=wrap;html=1;arcSize=40;fillColor=none;" vertex="1" parent="1">
          <mxGeometry x="650" y="640" width="145" height="40" as="geometry" />
        </mxCell>
        <mxCell id="zceYt40zE1iQLCcmFlUy-10" value="" style="endArrow=none;html=1;rounded=0;entryX=0.5;entryY=1;entryDx=0;entryDy=0;" edge="1" parent="1" target="zceYt40zE1iQLCcmFlUy-6">
          <mxGeometry width="50" height="50" relative="1" as="geometry">
            <mxPoint x="563" y="720" as="sourcePoint" />
            <mxPoint x="550" y="660" as="targetPoint" />
          </mxGeometry>
        </mxCell>
        <mxCell id="zceYt40zE1iQLCcmFlUy-11" value="" style="endArrow=none;html=1;rounded=0;" edge="1" parent="1">
          <mxGeometry width="50" height="50" relative="1" as="geometry">
            <mxPoint x="490" y="720" as="sourcePoint" />
            <mxPoint x="640" y="720" as="targetPoint" />
          </mxGeometry>
        </mxCell>
        <mxCell id="zceYt40zE1iQLCcmFlUy-12" value="" style="endArrow=classic;html=1;rounded=0;" edge="1" parent="1">
          <mxGeometry width="50" height="50" relative="1" as="geometry">
            <mxPoint x="640" y="720" as="sourcePoint" />
            <mxPoint x="640" y="760" as="targetPoint" />
            <Array as="points" />
          </mxGeometry>
        </mxCell>
        <mxCell id="zceYt40zE1iQLCcmFlUy-13" value="&lt;font style=&quot;font-size: 16px;&quot;&gt;Manage Salaries&lt;/font&gt;" style="rounded=1;whiteSpace=wrap;html=1;arcSize=40;fillColor=none;" vertex="1" parent="1">
          <mxGeometry x="570" y="760" width="145" height="40" as="geometry" />
        </mxCell>
        <mxCell id="zceYt40zE1iQLCcmFlUy-14" value="" style="endArrow=classic;html=1;rounded=0;" edge="1" parent="1">
          <mxGeometry width="50" height="50" relative="1" as="geometry">
            <mxPoint x="490" y="720" as="sourcePoint" />
            <mxPoint x="490" y="760" as="targetPoint" />
            <Array as="points" />
          </mxGeometry>
        </mxCell>
        <mxCell id="zceYt40zE1iQLCcmFlUy-15" value="&lt;font style=&quot;font-size: 16px;&quot;&gt;Manage Prepayment&lt;/font&gt;" style="rounded=1;whiteSpace=wrap;html=1;arcSize=40;fillColor=none;" vertex="1" parent="1">
          <mxGeometry x="417.5" y="760" width="145" height="40" as="geometry" />
        </mxCell>
        <mxCell id="zceYt40zE1iQLCcmFlUy-16" value="" style="endArrow=classic;html=1;rounded=0;" edge="1" parent="1">
          <mxGeometry width="50" height="50" relative="1" as="geometry">
            <mxPoint x="560" y="840" as="sourcePoint" />
            <mxPoint x="560" y="880" as="targetPoint" />
            <Array as="points" />
          </mxGeometry>
        </mxCell>
        <mxCell id="zceYt40zE1iQLCcmFlUy-17" value="" style="endArrow=none;html=1;rounded=0;" edge="1" parent="1">
          <mxGeometry width="50" height="50" relative="1" as="geometry">
            <mxPoint x="490" y="840" as="sourcePoint" />
            <mxPoint x="640" y="840" as="targetPoint" />
          </mxGeometry>
        </mxCell>
        <mxCell id="zceYt40zE1iQLCcmFlUy-18" value="" style="endArrow=none;html=1;rounded=0;" edge="1" parent="1">
          <mxGeometry width="50" height="50" relative="1" as="geometry">
            <mxPoint x="490" y="840" as="sourcePoint" />
            <mxPoint x="490" y="800" as="targetPoint" />
          </mxGeometry>
        </mxCell>
        <mxCell id="zceYt40zE1iQLCcmFlUy-19" value="" style="endArrow=none;html=1;rounded=0;" edge="1" parent="1">
          <mxGeometry width="50" height="50" relative="1" as="geometry">
            <mxPoint x="640" y="840" as="sourcePoint" />
            <mxPoint x="640" y="800" as="targetPoint" />
          </mxGeometry>
        </mxCell>
        <mxCell id="zceYt40zE1iQLCcmFlUy-20" value="&lt;span style=&quot;font-size: 16px;&quot;&gt;vouchers&lt;/span&gt;" style="rounded=1;whiteSpace=wrap;html=1;arcSize=40;fillColor=none;" vertex="1" parent="1">
          <mxGeometry x="490" y="880" width="145" height="40" as="geometry" />
        </mxCell>
        <mxCell id="zceYt40zE1iQLCcmFlUy-21" value="" style="endArrow=classic;html=1;rounded=0;exitX=0.5;exitY=1;exitDx=0;exitDy=0;" edge="1" parent="1" source="zceYt40zE1iQLCcmFlUy-20">
          <mxGeometry width="50" height="50" relative="1" as="geometry">
            <mxPoint x="560" y="940" as="sourcePoint" />
            <mxPoint x="560" y="960" as="targetPoint" />
            <Array as="points" />
          </mxGeometry>
        </mxCell>
        <mxCell id="zceYt40zE1iQLCcmFlUy-23" style="edgeStyle=orthogonalEdgeStyle;rounded=0;orthogonalLoop=1;jettySize=auto;html=1;entryX=1;entryY=0.5;entryDx=0;entryDy=0;exitX=0.5;exitY=1;exitDx=0;exitDy=0;" edge="1" parent="1" source="zceYt40zE1iQLCcmFlUy-22" target="1Kfne0L4y8xewOiXxfqm-22">
          <mxGeometry relative="1" as="geometry" />
        </mxCell>
        <mxCell id="zceYt40zE1iQLCcmFlUy-22" value="&lt;span style=&quot;font-size: 16px;&quot;&gt;logout&lt;/span&gt;" style="rounded=1;whiteSpace=wrap;html=1;arcSize=40;fillColor=none;" vertex="1" parent="1">
          <mxGeometry x="490" y="960" width="145" height="40" as="geometry" />
        </mxCell>
      </root>
    </mxGraphModel>
  </diagram>
</mxfile>
